<?xml version="1.0" encoding="iso-8859-1"?>
<!-- Generator: Adobe Illustrator 19.0.0, SVG Export Plug-In . SVG Version: 6.00 Build 0)  -->
<svg version="1.1" id="Layer_1" xmlns="http://www.w3.org/2000/svg" xmlns:xlink="http://www.w3.org/1999/xlink" x="0px" y="0px"
	 viewBox="0 0 512 512" style="enable-background:new 0 0 512 512;" xml:space="preserve">
<g>
	<path style="fill:#00BEFF;" d="M255.658,144.473l67.588-77.245c6.063-6.93,16.725-7.285,23.236-0.774l0.026,0.026
		c17.841,17.841,16.868,47.052-2.12,63.667l-54.963,48.093"/>
	<path style="fill:#00BEFF;" d="M254.31,210.663l-67.588,77.245c-6.063,6.93-16.725,7.285-23.236,0.773l-0.026-0.026
		c-17.841-17.841-16.868-47.052,2.12-63.667l54.963-48.093"/>
	<path style="fill:#00BEFF;" d="M288.078,178.242l77.245,67.588c6.93,6.063,7.285,16.725,0.774,23.236l-0.026,0.026
		c-17.841,17.841-47.052,16.868-63.667-2.12l-48.093-54.963"/>
	<path style="fill:#00BEFF;" d="M221.889,176.894l-77.245-67.588c-6.93-6.063-7.285-16.725-0.774-23.236l0.026-0.026
		c17.841-17.841,47.052-16.868,63.667,2.12l48.093,54.963"/>
</g>
</svg>
